<mxfile host="app.diagrams.net" modified="2020-11-11T03:41:02.947Z" agent="5.0 (Windows NT 6.3; Win64; x64) AppleWebKit/537.36 (KHTML, like Gecko) Chrome/86.0.4240.183 Safari/537.36" etag="hitWZztVyLy4avz8rjaN" version="13.8.5" type="github">
  <diagram id="prtHgNgQTEPvFCAcTncT" name="Page-1">
    <mxGraphModel dx="862" dy="460" grid="1" gridSize="10" guides="1" tooltips="1" connect="1" arrows="1" fold="1" page="1" pageScale="1" pageWidth="827" pageHeight="1169" math="0" shadow="0">
      <root>
        <mxCell id="0" />
        <mxCell id="1" parent="0" />
        <mxCell id="f7f4crDrcddYw8fhbuVK-5" style="edgeStyle=orthogonalEdgeStyle;rounded=0;orthogonalLoop=1;jettySize=auto;html=1;" edge="1" parent="1" source="f7f4crDrcddYw8fhbuVK-1" target="f7f4crDrcddYw8fhbuVK-2">
          <mxGeometry relative="1" as="geometry" />
        </mxCell>
        <mxCell id="f7f4crDrcddYw8fhbuVK-6" style="edgeStyle=orthogonalEdgeStyle;rounded=0;orthogonalLoop=1;jettySize=auto;html=1;" edge="1" parent="1" source="f7f4crDrcddYw8fhbuVK-1" target="f7f4crDrcddYw8fhbuVK-3">
          <mxGeometry relative="1" as="geometry" />
        </mxCell>
        <mxCell id="f7f4crDrcddYw8fhbuVK-7" style="edgeStyle=orthogonalEdgeStyle;rounded=0;orthogonalLoop=1;jettySize=auto;html=1;" edge="1" parent="1" source="f7f4crDrcddYw8fhbuVK-1" target="f7f4crDrcddYw8fhbuVK-4">
          <mxGeometry relative="1" as="geometry" />
        </mxCell>
        <mxCell id="f7f4crDrcddYw8fhbuVK-9" style="edgeStyle=orthogonalEdgeStyle;rounded=0;orthogonalLoop=1;jettySize=auto;html=1;" edge="1" parent="1" source="f7f4crDrcddYw8fhbuVK-1" target="f7f4crDrcddYw8fhbuVK-8">
          <mxGeometry relative="1" as="geometry" />
        </mxCell>
        <mxCell id="f7f4crDrcddYw8fhbuVK-11" style="edgeStyle=orthogonalEdgeStyle;rounded=0;orthogonalLoop=1;jettySize=auto;html=1;" edge="1" parent="1" source="f7f4crDrcddYw8fhbuVK-1" target="f7f4crDrcddYw8fhbuVK-10">
          <mxGeometry relative="1" as="geometry" />
        </mxCell>
        <mxCell id="f7f4crDrcddYw8fhbuVK-1" value="Gerente de projetos" style="rounded=1;whiteSpace=wrap;html=1;" vertex="1" parent="1">
          <mxGeometry x="290" y="40" width="120" height="60" as="geometry" />
        </mxCell>
        <mxCell id="f7f4crDrcddYw8fhbuVK-2" value="Analista de sistema" style="rounded=1;whiteSpace=wrap;html=1;" vertex="1" parent="1">
          <mxGeometry x="20" y="210" width="120" height="60" as="geometry" />
        </mxCell>
        <mxCell id="f7f4crDrcddYw8fhbuVK-3" value="Assistente de marketing" style="rounded=1;whiteSpace=wrap;html=1;" vertex="1" parent="1">
          <mxGeometry x="190" y="210" width="120" height="60" as="geometry" />
        </mxCell>
        <mxCell id="f7f4crDrcddYw8fhbuVK-4" value="Assistente administrativo" style="rounded=1;whiteSpace=wrap;html=1;" vertex="1" parent="1">
          <mxGeometry x="410" y="210" width="120" height="60" as="geometry" />
        </mxCell>
        <mxCell id="f7f4crDrcddYw8fhbuVK-8" value="Analista Financeira" style="rounded=1;whiteSpace=wrap;html=1;" vertex="1" parent="1">
          <mxGeometry x="540" y="210" width="120" height="60" as="geometry" />
        </mxCell>
        <mxCell id="f7f4crDrcddYw8fhbuVK-10" value="Designer" style="rounded=1;whiteSpace=wrap;html=1;" vertex="1" parent="1">
          <mxGeometry x="670" y="210" width="120" height="60" as="geometry" />
        </mxCell>
      </root>
    </mxGraphModel>
  </diagram>
</mxfile>
